<svg xmlns="http://www.w3.org/2000/svg" width="350" height="114" viewBox="0 0 350 114" version="1.1">
	<path d="M 1 56.912 L 1 113 15.500 113 L 30 113 30 91.500 L 30 70 37.250 70.033 L 44.500 70.065 58.953 91.533 L 73.405 113 89.703 113 C 98.666 113, 106 112.749, 106 112.443 C 106 112.137, 97.835 101.101, 87.857 87.920 C 77.878 74.738, 69.890 63.808, 70.107 63.630 C 70.323 63.452, 72.873 62.035, 75.774 60.481 C 89.771 52.983, 95.870 39.026, 91.532 24.419 C 88.616 14.599, 81.952 8.520, 69.500 4.318 C 61.643 1.667, 60.958 1.612, 31.250 1.222 L 1 0.824 1 56.912 M 115 10.500 L 115 20 151 20 L 187 20 187 10.500 L 187 1 151 1 L 115 1 115 10.500 M 238 57 L 238 113 248.640 113 L 259.281 113 258.797 71.250 C 258.532 48.287, 258.459 29.950, 258.636 30.500 C 258.814 31.050, 263.478 47.475, 269.001 67 C 274.524 86.525, 279.721 104.862, 280.549 107.750 L 282.056 113 292.450 113 L 302.845 113 305.849 103.250 C 307.501 97.887, 313.205 79.100, 318.525 61.500 C 323.844 43.900, 328.264 29.425, 328.348 29.333 C 328.432 29.241, 328.340 48.029, 328.144 71.083 L 327.787 113 338.394 113 L 349 113 349 56.974 L 349 0.948 333.788 1.224 L 318.576 1.500 306.038 43.161 C 299.142 66.074, 293.216 84.299, 292.869 83.661 C 292.522 83.022, 287.885 67.200, 282.565 48.500 C 277.244 29.800, 271.997 11.463, 270.903 7.750 L 268.915 1 253.458 1 L 238 1 238 57 M 30 35.487 L 30 51.257 40.750 50.797 C 57.386 50.086, 63.330 45.868, 63.368 34.746 C 63.402 24.980, 57.269 21.009, 40.953 20.236 L 30 19.717 30 35.487 M 115.667 48.667 C 115.300 49.033, 115 53.758, 115 59.167 L 115 69 162.500 69 L 210 69 210 58.500 L 210 48 163.167 48 C 137.408 48, 116.033 48.300, 115.667 48.667 M 115 103.500 L 115 113 172.500 113 L 230 113 230 103.500 L 230 94 172.500 94 L 115 94 115 103.500" stroke="none" fill="#007aff" fill-rule="evenodd"/>
</svg>